name Trialà11.sto
datacolumns 19
datarows 20
range 1.58000000 1.65600000
endheader

                time	     ground_force_vx	     ground_force_vy	     ground_force_vz	     ground_force_px	     ground_force_py	     ground_force_pz	     ground_force_vx	     ground_force_vy	     ground_force_vz	     ground_force_px	     ground_force_py	     ground_force_pz	     ground_torque_x	     ground_torque_y	     ground_torque_z	     ground_torque_x	     ground_torque_y	     ground_torque_z	
          1.58000000	       -106.57998043	         54.65620595	         15.99263992	          0.93132796	          0.00000000	          0.32169913	       -322.09454047	        888.94171933	         11.30453021	          2.12402301	          0.00000000	          0.19146287	        -19.59455978	        -48.14943980	         51.20471530	       -186.12960889	        -41.71461808	       1888.69177253	
          1.58400000	       -107.99103456	         57.73146223	         15.84248672	          0.93210558	          0.00000000	          0.32184335	       -334.64987704	        903.44263892	         12.71720055	          2.12739554	          0.00000000	          0.19104949	        -20.36324125	        -48.57001491	         54.07335145	       -189.07789654	        -46.51047995	       1922.60593732	
          1.58800000	       -108.80079602	         61.49001473	         15.62064009	          0.92892766	          0.00000000	          0.32250236	       -346.27369485	        915.81099637	         14.17232633	          2.13086240	          0.00000000	          0.19066034	        -21.39770653	        -48.71333260	         57.34475587	       -191.58433234	        -51.32382143	       1952.16198843	
          1.59200000	       -109.09795446	         65.77247066	         15.33377666	          0.92322694	          0.00000000	          0.32340824	       -356.92633791	        926.13261680	         15.64907343	          2.13442133	          0.00000000	          0.19029718	        -22.64382281	        -48.61230871	         60.91581727	       -193.67101881	        -56.09584457	       1977.52144299	
          1.59600000	       -108.96592564	         70.42537234	         14.98812339	          0.91616527	          0.00000000	          0.32437374	       -366.57978896	        934.50497586	         17.12527258	          2.13806931	         -0.00000000	          0.18996188	        -24.04902798	        -48.29855650	         64.68701088	       -195.36270468	        -60.76645122	       1998.86994160	
          1.60000000	       -108.48183170	         75.30310550	         14.58951104	          0.90859446	          0.00000000	          0.32528483	       -375.21750574	        941.03484118	         18.57797675	          2.14180256	          0.00000000	          0.18965651	        -25.56303689	        -47.80203107	         68.56362817	       -196.68619611	        -65.27558646	       2016.41259263	
          1.60400000	       -107.71575097	         80.26957349	         14.14343770	          0.90109270	          0.00000000	          0.32608448	       -382.83418453	        945.83624514	         19.98403294	          2.14561664	          0.00000000	          0.18938323	        -27.13846458	        -47.15076022	         72.45687751	       -197.66983206	        -69.56458674	       2030.37000258	
          1.60800000	       -106.73023200	         85.19962511	         13.65513669	          0.89402656	          0.00000000	          0.32675494	       -389.43544009	        949.02875955	         21.32064919	          2.14950651	         -0.00000000	          0.18914433	        -28.73136134	        -46.37065776	         76.28484615	       -198.34302036	        -73.57748716	       2040.97492237	
          1.61200000	       -105.58005934	         89.98022826	         13.12964391	          0.88761163	          0.00000000	          0.32730223	       -395.03738506	        950.73602238	         22.56593930	          2.15346657	          0.00000000	          0.18894220	        -30.30165659	        -45.48541356	         79.97331626	       -198.73582628	        -77.26224690	       2048.46939543	
          1.61600000	       -104.31225185	         94.51138507	         12.57186024	          0.88196189	          0.00000000	          0.32774439	       -399.66608880	        951.08445354	         23.69943131	          2.15749066	          0.00000000	          0.18877925	        -31.81351028	        -44.51645304	         83.45642891	       -198.87860267	        -80.57185812	       2053.10226725	
          1.62000000	       -102.96626915	         98.70678833	         11.98660566	          0.87712605	          0.00000000	          0.32810343	       -403.35689672	        950.20209490	         24.70252774	          2.16157209	          0.00000000	          0.18865795	        -33.23557156	        -43.48295749	         86.67719223	       -198.80164979	        -83.46530984	       2055.12691195	
          1.62400000	       -101.57439763	        102.49422238	         11.37866239	          0.87311289	          0.00000000	          0.32840038	       -406.15359750	        948.21751725	         25.55890927	          2.16570364	          0.00000000	          0.18858071	        -34.54114641	        -42.40193603	         89.58783153	       -198.53489476	        -85.90838634	       2054.79905049	
          1.62800000	       -100.16228451	        105.81571577	         10.75280517	          0.86990827	          0.00000000	          0.32865280	       -408.10743641	        945.25875459	         26.25487620	          2.16987748	          0.00000000	          0.18854986	        -35.70827704	        -41.28833928	         92.14998184	       -198.10758372	        -87.87428836	       2052.37457468	
          1.63200000	        -98.74958691	        108.62745635	         10.11381775	          0.86748618	          0.00000000	          0.32887380	       -409.27598634	        941.45224675	         26.77962412	          2.17408515	          0.00000000	          0.18856753	        -36.71973719	        -40.15520502	         94.33472547	       -197.54798436	        -89.34407241	       2048.10733844	
          1.63600000	        -97.35070254	        110.89948218	          9.46649553	          0.86581582	          0.00000000	          0.32907205	       -409.72190050	        936.92178973	         27.12545191	          2.17831751	          0.00000000	          0.18863560	        -37.56294855	        -39.01382638	         96.12247940	       -196.88310036	        -90.30690881	       2042.24691972	
          1.64000000	        -95.97554962	        112.61516462	          8.81563549	          0.86486589	          0.00000000	          0.32925230	       -409.51158021	        931.78750557	         27.28790029	          2.18256465	          0.00000000	          0.18875557	        -38.22982433	        -37.87393415	         97.50273936	       -196.13840201	        -90.76016215	       2035.03638468	
          1.64400000	        -94.63036493	        113.77050194	          8.16601524	          0.86460720	          0.00000000	          0.32941602	       -408.71379693	        926.16485022	         27.26582002	          2.18681582	          0.00000000	          0.18892848	        -38.71654715	        -36.74388559	         98.47368936	       -195.33757831	        -90.70929992	       2026.71010173	
          1.64800000	        -93.31849179	        114.37324398	          7.52236393	          0.86501402	          0.00000000	          0.32956206	       -407.39831142	        920.16368123	         27.06136930	          2.19105946	          0.00000000	          0.18915476	        -39.02328862	        -35.63085321	         99.04168741	       -194.50231697	        -90.16763758	       2017.49166122	
          1.65200000	        -92.04113233	        114.44187034	          6.88932759	          0.86606469	          0.00000000	          0.32968727	       -405.63453352	        913.88740827	         26.67994118	          2.19528311	          0.00000000	          0.18943416	        -39.15387910	        -34.54100783	         99.22063949	       -193.65211827	        -89.15593086	       2007.59195934	
          1.65600000	        -90.79804253	        114.00444635	          6.27143185	          0.86774168	          0.00000000	          0.32978693	       -403.49026483	        907.43224937	         26.13002254	          2.19947346	          0.00000000	          0.18976564	        -39.11543620	        -33.47969090	         99.03127617	       -192.80414858	        -87.70182794	       1997.20750422	
